<svg width="96" height="96" xmlns="http://www.w3.org/2000/svg"><g fill="none" fill-rule="evenodd"><g stroke-linecap="round" stroke-linejoin="round" stroke-width="1.5"><path d="M61.9688 48.1914l-17.32-9.999 16.454-9.5 17.32 9.999zM41.1846 40.1924l12.99 7.499M25.584 45.1924l24.249 13.999" stroke="#13c91e"/><path stroke="#425066" d="M41.1729 68.1914l-31.177-17.999 52.827-30.5 31.177 17.999z"/><path d="M77.5459 32.1914l-1.732 1-5.197-2.999 1.733-1-9.527-5.5-42.435 24.5 24.249 13.999 42.435-24.5z" stroke="#13c91e"/><path d="M25.584 55.1924l7.794 4.499M16.1934 60.7695l-6.198-3.578v-7M41.1729 75.1914l-16.098-9.293" stroke="#425066"/><g><path d="M16.8389 60.0566c.866-.871 2.269-.953 3.852-.039 2.63 1.518 4.762 5.212 4.762 8.25 0 1.77-.724 2.928-1.85 3.283" stroke="#13c91e"/><path stroke="#425066" d="M16.9238 46.1924l-14.924-8.617h29.848M54.2227 67.6572l-13.05 7.534v-7M94 37.6914v7l-24.913 14.384"/><path stroke="#425066" d="M51.1318 65.9414l17.955 10.366v-20.732z"/><path d="M23.6016 71.5488l-21.602 4.759 14.842-16.248" stroke="#13c91e"/></g></g><path fill="none" d="M0 0h96v96H0z"/></g></svg>
