<svg width="96" height="96" xmlns="http://www.w3.org/2000/svg"><g fill="none" fill-rule="evenodd"><g><path d="M62.4854 37.3691c.676.391 1.773.391 2.449 0 .676-.391.676-1.023 0-1.414s-1.773-.391-2.449 0c-.677.391-.677 1.023 0 1.414" fill="#425066"/><path d="M20.4141 61.96c.828 1.508 1.706 2.99 2.629 4.438M23.0435 66.3984a76.4551 76.4551 0 0 0 2.984 4.344M20.0908 61.3652c.107.198.215.396.323.595M31.6792 68.0547l-5.688 2.705M22.9053 14.3359c-1.604 3.463-2.49 7.774-2.49 12.838 0 2.277.179 4.611.523 6.973M44.667 14.2383c-.303-.185-.606-.365-.911-.541M64.5781 34.6738a76.8286 76.8286 0 0 0-3.583-5.171M43.7563 87.2031c17.579 10.148 31.829 1.921 31.829-18.377M42.8125 86.6426c.313.191.628.378.944.561" stroke-width="1.5" stroke-linecap="round" stroke-linejoin="round" stroke="#13c91e"/><path d="M43.7563 13.6973c-17.579-10.148-31.829-1.921-31.829 18.377 0 2.277.18 4.611.523 6.973M53.1479 9.334c-.3-.184-.602-.362-.904-.537M72.9673 29.6182a77.1263 77.1263 0 0 0-3.007-4.378M75.5859 34.04a78.1674 78.1674 0 0 0-2.619-4.422M74.167 84.8516c6.102-3.173 9.906-10.438 9.906-20.926M64.6064 86.5645c1.938.175 3.779.078 5.499-.278M52.2437 82.3027c4.385 2.531 8.562 3.919 12.363 4.262M51.3125 81.749c.309.189.62.373.931.554" stroke-width="1.5" stroke-linecap="round" stroke-linejoin="round" stroke="#13c91e"/><path d="M25.895 9.7139c-1.154 1.296-2.149 2.82-2.961 4.561-.01.02-.019.041-.029.061M52.2437 8.7969c-8.757-5.056-16.688-5.551-22.443-2.266M66.9507 89.0068l7.695-4.415M21.0957 11.5586l8.372-4.831M67.165 39.0449a77.7893 77.7893 0 0 0-2.619-4.421M51.165 75.6504l8.635 1.198-8.488 4.901M42.8247 86.6494l-8.488 4.9v-18.234l8.495 1.179" stroke-width="1.5" stroke-linecap="round" stroke-linejoin="round" stroke="#13c91e"/><path d="M87.2744 41.1973v13.605M80.5527 45.0781l6.722-3.881M64.2983 27.9326l-11.141-6.433M87.2744 41.1973l-11.299-6.523M44.833 20.3506L8.726 41.1976 48 63.8726l24.065-13.894M87.2744 45.7324l-5.489 3.169" stroke="#425066" stroke-width="1.5" stroke-linecap="round" stroke-linejoin="round"/><path stroke="#425066" stroke-width="1.5" stroke-linecap="round" stroke-linejoin="round" d="M8.7256 41.1973v4.535l39.274 22.675 25.299-14.606M87.2744 50.2676l-4.478 2.585"/><path stroke="#425066" stroke-width="1.5" stroke-linecap="round" stroke-linejoin="round" d="M8.7256 45.7324v4.535l39.274 22.675 26.277-15.171M87.2744 54.8027l-3.725 2.15"/><path stroke="#425066" stroke-width="1.5" stroke-linecap="round" stroke-linejoin="round" d="M8.7256 50.2676v4.535l39.274 22.675 27.062-15.624"/><path d="M46.7754 55.5098c.676.391 1.773.391 2.449 0 .676-.391.676-1.023 0-1.414s-1.773-.391-2.449 0c-.677.391-.677 1.023 0 1.414M54.6304 50.9746c.676.391 1.773.391 2.449 0 .676-.391.676-1.023 0-1.414s-1.773-.391-2.449 0c-.677.391-.677 1.023 0 1.414M62.4849 46.4395c.677.391 1.773.391 2.45 0 .676-.391.676-1.023 0-1.414-.677-.391-1.773-.391-2.45 0-.676.391-.676 1.023 0 1.414M38.9204 50.9746c.676.391 1.773.391 2.449 0 .677-.391.677-1.023 0-1.414-.676-.391-1.773-.391-2.449 0-.677.391-.677 1.023 0 1.414M46.7754 46.4395c.676.391 1.773.391 2.449 0 .677-.391.677-1.023 0-1.414-.676-.391-1.773-.391-2.449 0-.677.391-.677 1.023 0 1.414M31.0654 46.4395c.676.391 1.773.391 2.449 0 .677-.391.677-1.023 0-1.414-.676-.391-1.773-.391-2.449 0-.676.391-.676 1.023 0 1.414M38.9204 41.9043c.676.391 1.773.391 2.449 0 .677-.391.677-1.023 0-1.414-.676-.391-1.773-.391-2.449 0-.676.391-.676 1.023 0 1.414M48 37.6621c.443 0 .887-.098 1.225-.293.676-.391.676-1.023 0-1.414-.677-.391-1.773-.391-2.45 0-.676.391-.676 1.023 0 1.414.338.195.782.293 1.225.293M54.6304 41.9043c.676.391 1.773.391 2.449 0 .676-.391.677-1.023 0-1.414-.676-.391-1.773-.391-2.449 0-.677.391-.677 1.023 0 1.414M54.6304 32.834c.676.391 1.773.391 2.449 0 .677-.39.677-1.023 0-1.414-.676-.391-1.773-.391-2.449 0-.677.391-.677 1.024 0 1.414M23.2104 41.9043c.676.391 1.773.391 2.45 0 .676-.391.676-1.023 0-1.414-.677-.391-1.774-.391-2.45 0-.676.391-.676 1.023 0 1.414M31.0654 37.3691c.676.391 1.773.391 2.45 0 .676-.391.676-1.023 0-1.414-.677-.391-1.774-.391-2.45 0-.676.391-.676 1.023 0 1.414M38.9204 32.834c.676.391 1.773.391 2.45 0 .676-.39.676-1.023 0-1.414-.677-.391-1.774-.391-2.45 0-.676.391-.676 1.024 0 1.414M46.7754 28.2998c.676.39 1.773.39 2.449 0 .677-.391.677-1.024 0-1.415-.676-.391-1.773-.391-2.449 0-.676.391-.676 1.024 0 1.415" fill="#425066"/><path stroke-width="1.5" stroke-linecap="round" stroke-linejoin="round" d="M53.1191 9.3506l8.488-4.9v18.215l-25.464-3.514 8.488-4.901M84.0728 63.9258c0-9.648-3.22-20.287-8.487-29.886M75.585 68.8262c0-9.607-3.193-20.198-8.421-29.765M60.9951 29.5029l8.965-4.263" stroke="#13c91e"/></g><path fill="none" d="M0 96h96V0H0z"/></g></svg>
